<svg
  id="winback-logo"
  width="204"
  height="20"
  viewBox="0 0 204 20"
  fill="none"
  xmlns="http://www.w3.org/2000/svg"
>
  <g clip-path="url(#clip0_3151_2005)">
    <path
      d="M36.5367 0H31.6645L26.0063 9.99771L31.6645 19.9954H36.5367L30.8785 9.99771L36.5367 0Z"
      fill="#F18841"
      class="orange-path"
    ></path>
    <path
      d="M0 0L10.8233 19.1078C10.9739 19.3761 11.2 19.6007 11.4772 19.7572C11.7543 19.9137 12.0718 19.9961 12.3953 19.9954H16.1983L4.87219 0H0Z"
      fill="black"
    ></path>
    <path
      d="M10.1689 0L20.9923 19.1078C21.1429 19.3761 21.369 19.6007 21.6461 19.7572C21.9232 19.9137 22.2407 19.9961 22.5643 19.9954H26.3673L15.0411 0H10.1689Z"
      fill="black"
    ></path>
    <path
      d="M148.436 12.9215L151.287 5.3672L154.138 12.9215H148.436ZM156.809 19.9954H160.856L153.313 0H149.261L141.719 19.9954H145.785L147.225 16.1702H155.378L156.809 19.9954Z"
      fill="black"
    ></path>
    <path d="M91.5464 0H87.5383V19.9954H91.5464V0Z" fill="black"></path>
    <path
      d="M72.4533 19.9954L68.7772 6.34637L65.1011 19.9954H60.0873L54.7025 0H58.652L62.7529 15.2322L66.8586 0H70.7007L74.8015 15.2322L78.9024 0H82.8568L77.472 19.9954H72.4533Z"
      fill="black"
    ></path>
    <path
      d="M125.432 8.33219H129.338C132.643 8.33219 133.336 6.93663 133.336 5.76985V5.71037C133.336 4.08145 131.998 3.14802 129.655 3.14802H125.442L125.432 8.33219ZM125.432 16.8474H130.651C134.068 16.8474 134.586 15.1819 134.586 14.1935V14.1341C134.586 13.1457 134.059 11.4802 130.495 11.4802H125.432V16.8474ZM121.527 19.9954V0H130.539C132.931 0 134.83 0.594834 136.031 1.72043C136.489 2.14038 136.849 2.64462 137.088 3.20138C137.327 3.75814 137.441 4.35535 137.422 4.95539V5.01487C137.422 6.84512 136.568 8.17662 134.732 9.13292L133.863 9.59048L134.796 9.9245C137.505 10.8945 138.662 12.3084 138.662 14.642V14.7014C138.662 18.0645 135.797 19.9908 130.797 19.9908L121.527 19.9954Z"
      fill="black"
    ></path>
    <path
      d="M111.084 19.9954L101.886 6.15877V19.9954H97.8784V0H101.955L111.157 13.8412V0H115.165V19.9954H111.084Z"
      fill="black"
    ></path>
    <path
      d="M178.436 13.6994C177.869 14.5164 177.095 15.1895 176.184 15.6589C175.273 16.1282 174.252 16.3793 173.212 16.3898C169.673 16.3898 166.792 13.5209 166.792 9.98397C166.792 6.44702 169.673 3.57812 173.212 3.57812C174.252 3.58872 175.274 3.84034 176.185 4.31056C177.096 4.78078 177.87 5.455 178.436 6.27315L181.79 4.48408C180.883 3.11405 179.621 1.98192 178.121 1.19367C176.621 0.405428 174.932 -0.0131518 173.212 -0.0228882C167.544 -0.0228882 162.96 4.45206 162.96 9.97482C162.96 15.4976 167.559 19.9725 173.212 19.9725C174.932 19.9628 176.621 19.5442 178.121 18.756C179.621 17.9677 180.883 16.8356 181.79 15.4656L178.436 13.6994Z"
      fill="black"
    ></path>
    <path
      d="M199.326 19.9954L193.663 9.99771L199.326 0H203.636L197.973 9.99771L203.636 19.9954H199.326Z"
      fill="black"
    ></path>
    <path d="M190.46 0H186.452V19.9954H190.46V0Z" fill="black"></path>
  </g>
  <defs>
    <clipPath id="clip0_3151_2005">
      <rect width="203.636" height="20" fill="white"></rect>
    </clipPath>
  </defs>
</svg>